# xmcd
#
# Track frame offsets:
#	150
#	14106
#	36286
#	52466
#	76331
#	89511
#	102323
#	117691
#	140741
#	161521
#	180778
#	200513
#	213738
#	227233
#	240958
#	255266
#	267986
#	281496
#	294701
#	313843
#
# Disc length: 4342 seconds
#
# Revision: 2
# Processed by: cddbd v1.5.2PL0 Copyright (c) Steve Scherf et al.
# Submitted via: audiograbber 1.83.01
#
DISCID=3210f414
DTITLE=Harry Belafonte - Island In The Sun
DYEAR=2000
DGENRE=Salsa
TTITLE0=Day-O (Banana Boat Song)
TTITLE1=Mr. Bojangles
TTITLE2=Man Smart (Woman Smarter)
TTITLE3=Suzanne
TTITLE4=Hallelujah, I Love Her So
TTITLE5=I Do Adore Her
TTITLE6=Unchained Melody
TTITLE7=God Bless The Child
TTITLE8=One For My Baby (And One More For The Road)
TTITLE9=Hole In The Bucket
TTITLE10=Gotta Travel On
TTITLE11=Four Strong Winds
TTITLE12=Cocoanut Woman
TTITLE13=This Land Is Your Land
TTITLE14=Island In The Sun
TTITLE15=Don't Ever Love Me
TTITLE16=Mary's Boy Child
TTITLE17=Mama Look A Boo-Boo
TTITLE18=Dark As A Dungeon
TTITLE19=Hold 'em Joe
EXTD=
EXTT0=
EXTT1=
EXTT2=
EXTT3=
EXTT4=
EXTT5=
EXTT6=
EXTT7=
EXTT8=
EXTT9=
EXTT10=
EXTT11=
EXTT12=
EXTT13=
EXTT14=
EXTT15=
EXTT16=
EXTT17=
EXTT18=
EXTT19=
PLAYORDER=
